<?xml version="1.0" encoding="UTF-8"?>
<svg width="1378px" height="318px" viewBox="0 0 1378 318" version="1.1" xmlns="http://www.w3.org/2000/svg" xmlns:xlink="http://www.w3.org/1999/xlink">
    <!-- Generator: Sketch 51.3 (57544) - http://www.bohemiancoding.com/sketch -->
    <title>Group 2</title>
    <desc>Created with Sketch.</desc>
    <defs></defs>
    <g id="Page-1" stroke="none" stroke-width="1" fill="none" fill-rule="evenodd">
        <g id="Group-2" fill-rule="nonzero">
            <g id="voiceit-powered-by-one-default-(1)">
                <rect id="Background" stroke-opacity="0" stroke="#000000" stroke-width="3" fill="#000000" x="0" y="0" width="1377.44813" height="317.73446" rx="15"></rect>
                <g id="Group-5" transform="translate(158.000000, 71.000000)">
                    <g id="Group-6" transform="translate(481.100000, 0.000000)">
                        <g id="Group-4" transform="translate(154.800000, 27.000000)">
                            <g id="Text">
                                <g id="Voice">
                                    <g id="path-1-link" fill="#000000">
                                        <path d="M26.06625,7.839 L48.17925,63.6075 L70.41375,7.839 L96.29325,7.839 L57.65625,99.45 L38.70225,99.45 L0.18675,7.839 L26.06625,7.839 Z M117.06975,67.9815 C117.06975,70.0875105 117.454496,72.0112413 118.224,73.75275 C118.993504,75.494259 120.005994,77.012994 121.2615,78.309 C122.517006,79.605006 124.015491,80.617496 125.757,81.3465 C127.498509,82.075504 129.34124,82.44 131.28525,82.44 C133.22926,82.44 135.071991,82.075504 136.8135,81.3465 C138.555009,80.617496 140.053494,79.605006 141.309,78.309 C142.564506,77.012994 143.576996,75.494259 144.3465,73.75275 C145.116004,72.0112413 145.50075,70.1280101 145.50075,68.103 C145.50075,66.1589903 145.116004,64.3162587 144.3465,62.57475 C143.576996,60.8332413 142.564506,59.3145065 141.309,58.0185 C140.053494,56.7224935 138.555009,55.7100036 136.8135,54.981 C135.071991,54.2519964 133.22926,53.8875 131.28525,53.8875 C129.34124,53.8875 127.498509,54.2519964 125.757,54.981 C124.015491,55.7100036 122.517006,56.7224935 121.2615,58.0185 C120.005994,59.3145065 118.993504,60.8129915 118.224,62.514 C117.454496,64.2150085 117.06975,66.0374903 117.06975,67.9815 Z M93.86325,67.7385 C93.86325,63.1214769 94.7947407,58.80827 96.65775,54.79875 C98.5207593,50.78923 101.112733,47.3062648 104.43375,44.34975 C107.754767,41.3932352 111.703477,39.0645085 116.28,37.3635 C120.856523,35.6624915 125.858223,34.812 131.28525,34.812 C136.631277,34.812 141.592477,35.6422417 146.169,37.30275 C150.745523,38.9632583 154.714483,41.2717352 158.076,44.22825 C161.437517,47.1847648 164.049741,50.7082295 165.91275,54.79875 C167.775759,58.8892705 168.70725,63.4049753 168.70725,68.346 C168.70725,73.287025 167.75551,77.80273 165.852,81.89325 C163.94849,85.98377 161.336267,89.507235 158.01525,92.46375 C154.694233,95.420265 150.705023,97.708492 146.0475,99.3285 C141.389977,100.948508 136.347777,101.7585 130.92075,101.7585 C125.574723,101.7585 120.633773,100.948508 116.09775,99.3285 C111.561727,97.708492 107.653516,95.400015 104.373,92.403 C101.092484,89.405985 98.5207593,85.821771 96.65775,81.65025 C94.7947407,77.478729 93.86325,72.8415255 93.86325,67.7385 Z M203.33475,37.1205 L203.33475,99.45 L181.34325,99.45 L181.34325,37.1205 L203.33475,37.1205 Z M179.88525,13.185 C179.88525,11.4839915 180.209247,9.8842575 180.85725,8.38575 C181.505253,6.8872425 182.396244,5.5710057 183.53025,4.437 C184.664256,3.3029943 185.980493,2.4120032 187.479,1.764 C188.977507,1.1159968 190.577241,0.792 192.27825,0.792 C193.979259,0.792 195.578993,1.1159968 197.0775,1.764 C198.576007,2.4120032 199.892244,3.3029943 201.02625,4.437 C202.160256,5.5710057 203.051247,6.8872425 203.69925,8.38575 C204.347253,9.8842575 204.67125,11.4839915 204.67125,13.185 C204.67125,14.8860085 204.347253,16.4857425 203.69925,17.98425 C203.051247,19.4827575 202.160256,20.7989943 201.02625,21.933 C199.892244,23.0670057 198.576007,23.9579968 197.0775,24.606 C195.578993,25.2540032 193.979259,25.578 192.27825,25.578 C190.577241,25.578 188.977507,25.2540032 187.479,24.606 C185.980493,23.9579968 184.664256,23.0670057 183.53025,21.933 C182.396244,20.7989943 181.505253,19.4827575 180.85725,17.98425 C180.209247,16.4857425 179.88525,14.8860085 179.88525,13.185 Z M265.42125,57.2895 C261.614231,54.697487 257.766769,53.4015 253.87875,53.4015 C251.772739,53.4015 249.808509,53.7659964 247.986,54.495 C246.163491,55.2240036 244.563757,56.2567433 243.18675,57.59325 C241.809743,58.9297567 240.736504,60.5092409 239.967,62.33175 C239.197496,64.1542591 238.81275,66.1994887 238.81275,68.4675 C238.81275,70.6545109 239.197496,72.6592409 239.967,74.48175 C240.736504,76.304259 241.789493,77.883743 243.126,79.22025 C244.462507,80.556757 246.062241,81.589496 247.92525,82.3185 C249.788259,83.047504 251.772739,83.412 253.87875,83.412 C258.009771,83.412 261.857232,81.994514 265.42125,79.1595 L265.42125,97.8705 C259.994223,100.219512 254.850774,101.394 249.99075,101.394 C245.454727,101.394 241.14152,100.624508 237.051,99.0855 C232.96048,97.546492 229.356016,95.339264 226.2375,92.46375 C223.118984,89.588236 220.628259,86.14577 218.76525,82.13625 C216.902241,78.12673 215.97075,73.651525 215.97075,68.7105 C215.97075,63.7694753 216.861741,59.2537705 218.64375,55.16325 C220.425759,51.0727295 222.855735,47.5492648 225.93375,44.59275 C229.011765,41.6362352 232.676979,39.3277583 236.9295,37.66725 C241.182021,36.0067417 245.738226,35.1765 250.59825,35.1765 C255.944277,35.1765 260.885227,36.3104887 265.42125,38.5785 L265.42125,57.2895 Z M323.49825,59.2335 C322.769246,56.1554846 321.270761,53.6850093 319.00275,51.822 C316.734739,49.9589907 313.980766,49.0275 310.74075,49.0275 C307.338733,49.0275 304.564511,49.9184911 302.418,51.7005 C300.271489,53.4825089 298.914753,55.9934838 298.34775,59.2335 L323.49825,59.2335 Z M297.74025,71.991 C297.74025,81.468047 302.195205,86.2065 311.10525,86.2065 C315.884274,86.2065 319.488738,84.262519 321.91875,80.3745 L343.18125,80.3745 C338.888229,94.630571 328.155836,101.7585 310.98375,101.7585 C305.718724,101.7585 300.899272,100.968758 296.52525,99.38925 C292.151228,97.809742 288.405016,95.562015 285.2865,92.646 C282.167984,89.729985 279.758259,86.24702 278.05725,82.197 C276.356241,78.14698 275.50575,73.611025 275.50575,68.589 C275.50575,63.4049741 276.315742,58.7272709 277.93575,54.55575 C279.555758,50.3842291 281.864235,46.8405146 284.86125,43.9245 C287.858265,41.0084854 291.482979,38.7607579 295.7355,37.18125 C299.988021,35.6017421 304.787223,34.812 310.13325,34.812 C315.398276,34.812 320.136729,35.6017421 324.34875,37.18125 C328.560771,38.7607579 332.124735,41.048985 335.04075,44.046 C337.956765,47.043015 340.184242,50.7082283 341.72325,55.04175 C343.262258,59.3752717 344.03175,64.2554729 344.03175,69.6825 L344.03175,71.991 L297.74025,71.991 Z" id="path-1"></path>
                                    </g>
                                    <g id="path-1-link" fill="#FFFFFF">
                                        <path d="M26.06625,7.839 L48.17925,63.6075 L70.41375,7.839 L96.29325,7.839 L57.65625,99.45 L38.70225,99.45 L0.18675,7.839 L26.06625,7.839 Z M117.06975,67.9815 C117.06975,70.0875105 117.454496,72.0112413 118.224,73.75275 C118.993504,75.494259 120.005994,77.012994 121.2615,78.309 C122.517006,79.605006 124.015491,80.617496 125.757,81.3465 C127.498509,82.075504 129.34124,82.44 131.28525,82.44 C133.22926,82.44 135.071991,82.075504 136.8135,81.3465 C138.555009,80.617496 140.053494,79.605006 141.309,78.309 C142.564506,77.012994 143.576996,75.494259 144.3465,73.75275 C145.116004,72.0112413 145.50075,70.1280101 145.50075,68.103 C145.50075,66.1589903 145.116004,64.3162587 144.3465,62.57475 C143.576996,60.8332413 142.564506,59.3145065 141.309,58.0185 C140.053494,56.7224935 138.555009,55.7100036 136.8135,54.981 C135.071991,54.2519964 133.22926,53.8875 131.28525,53.8875 C129.34124,53.8875 127.498509,54.2519964 125.757,54.981 C124.015491,55.7100036 122.517006,56.7224935 121.2615,58.0185 C120.005994,59.3145065 118.993504,60.8129915 118.224,62.514 C117.454496,64.2150085 117.06975,66.0374903 117.06975,67.9815 Z M93.86325,67.7385 C93.86325,63.1214769 94.7947407,58.80827 96.65775,54.79875 C98.5207593,50.78923 101.112733,47.3062648 104.43375,44.34975 C107.754767,41.3932352 111.703477,39.0645085 116.28,37.3635 C120.856523,35.6624915 125.858223,34.812 131.28525,34.812 C136.631277,34.812 141.592477,35.6422417 146.169,37.30275 C150.745523,38.9632583 154.714483,41.2717352 158.076,44.22825 C161.437517,47.1847648 164.049741,50.7082295 165.91275,54.79875 C167.775759,58.8892705 168.70725,63.4049753 168.70725,68.346 C168.70725,73.287025 167.75551,77.80273 165.852,81.89325 C163.94849,85.98377 161.336267,89.507235 158.01525,92.46375 C154.694233,95.420265 150.705023,97.708492 146.0475,99.3285 C141.389977,100.948508 136.347777,101.7585 130.92075,101.7585 C125.574723,101.7585 120.633773,100.948508 116.09775,99.3285 C111.561727,97.708492 107.653516,95.400015 104.373,92.403 C101.092484,89.405985 98.5207593,85.821771 96.65775,81.65025 C94.7947407,77.478729 93.86325,72.8415255 93.86325,67.7385 Z M203.33475,37.1205 L203.33475,99.45 L181.34325,99.45 L181.34325,37.1205 L203.33475,37.1205 Z M179.88525,13.185 C179.88525,11.4839915 180.209247,9.8842575 180.85725,8.38575 C181.505253,6.8872425 182.396244,5.5710057 183.53025,4.437 C184.664256,3.3029943 185.980493,2.4120032 187.479,1.764 C188.977507,1.1159968 190.577241,0.792 192.27825,0.792 C193.979259,0.792 195.578993,1.1159968 197.0775,1.764 C198.576007,2.4120032 199.892244,3.3029943 201.02625,4.437 C202.160256,5.5710057 203.051247,6.8872425 203.69925,8.38575 C204.347253,9.8842575 204.67125,11.4839915 204.67125,13.185 C204.67125,14.8860085 204.347253,16.4857425 203.69925,17.98425 C203.051247,19.4827575 202.160256,20.7989943 201.02625,21.933 C199.892244,23.0670057 198.576007,23.9579968 197.0775,24.606 C195.578993,25.2540032 193.979259,25.578 192.27825,25.578 C190.577241,25.578 188.977507,25.2540032 187.479,24.606 C185.980493,23.9579968 184.664256,23.0670057 183.53025,21.933 C182.396244,20.7989943 181.505253,19.4827575 180.85725,17.98425 C180.209247,16.4857425 179.88525,14.8860085 179.88525,13.185 Z M265.42125,57.2895 C261.614231,54.697487 257.766769,53.4015 253.87875,53.4015 C251.772739,53.4015 249.808509,53.7659964 247.986,54.495 C246.163491,55.2240036 244.563757,56.2567433 243.18675,57.59325 C241.809743,58.9297567 240.736504,60.5092409 239.967,62.33175 C239.197496,64.1542591 238.81275,66.1994887 238.81275,68.4675 C238.81275,70.6545109 239.197496,72.6592409 239.967,74.48175 C240.736504,76.304259 241.789493,77.883743 243.126,79.22025 C244.462507,80.556757 246.062241,81.589496 247.92525,82.3185 C249.788259,83.047504 251.772739,83.412 253.87875,83.412 C258.009771,83.412 261.857232,81.994514 265.42125,79.1595 L265.42125,97.8705 C259.994223,100.219512 254.850774,101.394 249.99075,101.394 C245.454727,101.394 241.14152,100.624508 237.051,99.0855 C232.96048,97.546492 229.356016,95.339264 226.2375,92.46375 C223.118984,89.588236 220.628259,86.14577 218.76525,82.13625 C216.902241,78.12673 215.97075,73.651525 215.97075,68.7105 C215.97075,63.7694753 216.861741,59.2537705 218.64375,55.16325 C220.425759,51.0727295 222.855735,47.5492648 225.93375,44.59275 C229.011765,41.6362352 232.676979,39.3277583 236.9295,37.66725 C241.182021,36.0067417 245.738226,35.1765 250.59825,35.1765 C255.944277,35.1765 260.885227,36.3104887 265.42125,38.5785 L265.42125,57.2895 Z M323.49825,59.2335 C322.769246,56.1554846 321.270761,53.6850093 319.00275,51.822 C316.734739,49.9589907 313.980766,49.0275 310.74075,49.0275 C307.338733,49.0275 304.564511,49.9184911 302.418,51.7005 C300.271489,53.4825089 298.914753,55.9934838 298.34775,59.2335 L323.49825,59.2335 Z M297.74025,71.991 C297.74025,81.468047 302.195205,86.2065 311.10525,86.2065 C315.884274,86.2065 319.488738,84.262519 321.91875,80.3745 L343.18125,80.3745 C338.888229,94.630571 328.155836,101.7585 310.98375,101.7585 C305.718724,101.7585 300.899272,100.968758 296.52525,99.38925 C292.151228,97.809742 288.405016,95.562015 285.2865,92.646 C282.167984,89.729985 279.758259,86.24702 278.05725,82.197 C276.356241,78.14698 275.50575,73.611025 275.50575,68.589 C275.50575,63.4049741 276.315742,58.7272709 277.93575,54.55575 C279.555758,50.3842291 281.864235,46.8405146 284.86125,43.9245 C287.858265,41.0084854 291.482979,38.7607579 295.7355,37.18125 C299.988021,35.6017421 304.787223,34.812 310.13325,34.812 C315.398276,34.812 320.136729,35.6017421 324.34875,37.18125 C328.560771,38.7607579 332.124735,41.048985 335.04075,44.046 C337.956765,47.043015 340.184242,50.7082283 341.72325,55.04175 C343.262258,59.3752717 344.03175,64.2554729 344.03175,69.6825 L344.03175,71.991 L297.74025,71.991 Z" id="path-1"></path>
                                    </g>
                                </g>
                                <g id="It" transform="translate(358.000000, 7.000000)">
                                    <g id="path-2-link" fill="#000000">
                                        <path d="M24.09725,0.839 L24.09725,92.45 L0.28325,92.45 L0.28325,0.839 L24.09725,0.839 Z M65.77175,48.467 L65.77175,92.45 L43.78025,92.45 L43.78025,48.467 L36.49025,48.467 L36.49025,30.1205 L43.78025,30.1205 L43.78025,11.4095 L65.77175,11.4095 L65.77175,30.1205 L78.28625,30.1205 L78.28625,48.467 L65.77175,48.467 Z" id="path-2"></path>
                                    </g>
                                    <g id="path-2-link" fill="#FBC132">
                                        <path d="M24.09725,0.839 L24.09725,92.45 L0.28325,92.45 L0.28325,0.839 L24.09725,0.839 Z M65.77175,48.467 L65.77175,92.45 L43.78025,92.45 L43.78025,48.467 L36.49025,48.467 L36.49025,30.1205 L43.78025,30.1205 L43.78025,11.4095 L65.77175,11.4095 L65.77175,30.1205 L78.28625,30.1205 L78.28625,48.467 L65.77175,48.467 Z" id="path-2"></path>
                                    </g>
                                </g>
                            </g>
                        </g>
                        <g id="Logo" transform="translate(0.000000, 0.900000)" fill="#FBC132">
                            <g id="Group-3" transform="translate(38.894489, 78.399514) scale(-1, 1) rotate(-180.000000) translate(-38.894489, -78.399514) translate(0.894489, 0.399514)">
                                <g id="Group-2">
                                    <g id="Group" transform="translate(0.594236, 79.098600)">
                                        <polygon id="V" points="13.7816456 0 55.0906928 57.5119029 54.82152 75.4190334 0 0"></polygon>
                                        <polyline id="V" points="33.6884671 0 74.9975143 57.5119029 74.7283415 75.4190334 19.9068215 0"></polyline>
                                    </g>
                                    <g id="Group" transform="translate(38.000000, 38.367927) scale(-1, 1) rotate(-180.000000) translate(-38.000000, -38.367927) translate(0.000000, 0.367927)">
                                        <path d="M33.9856575,0 L75.2947046,57.5119029 L75.0255319,75.4190334 L20.2040118,0 L33.9856575,0 Z M14.078836,0 L55.3878832,57.5119029 L55.1187104,75.4190334 L0.297190359,0 L14.078836,0 Z" id="Combined-Shape"></path>
                                    </g>
                                </g>
                            </g>
                            <g id="Group-3" transform="translate(96.291744, 78.787986) rotate(180.000000) translate(-96.291744, -78.787986) translate(58.291744, 0.787986)">
                                <g id="Group-2">
                                    <g id="Group" transform="translate(0.882707, 79.487072)">
                                        <polygon id="V" points="13.7816456 0 55.0906928 57.5119029 54.82152 75.4190334 0 0"></polygon>
                                        <polyline id="V" points="33.6884671 0 74.9975143 57.5119029 74.7283415 75.4190334 19.9068215 0"></polyline>
                                    </g>
                                    <g id="Group" transform="translate(38.000000, 38.756398) scale(-1, 1) rotate(-180.000000) translate(-38.000000, -38.756398) translate(0.000000, 0.756398)">
                                        <path d="M34.2741287,0 L75.5831759,57.5119029 L75.3140032,75.4190334 L20.4924831,0 L34.2741287,0 Z M14.3673073,0 L55.6763545,57.5119029 L55.4071817,75.4190334 L0.585661643,0 L14.3673073,0 Z" id="Combined-Shape"></path>
                                    </g>
                                </g>
                            </g>
                            <path d="M85.1908748,80.0315878 C85.1621241,80.6319346 85.1189653,81.226419 85.0619048,81.8142948 L78.1025848,81.8142948 L78.1025848,85.3797086 L84.5320835,85.3797086 C84.4100759,85.983848 84.2729636,86.5784007 84.1213921,87.1624155 L78.1025848,87.1624155 L78.1025848,90.7278294 L82.9677153,90.7278294 C80.0394468,98.187765 74.5663005,103.206778 68.2976967,103.206778 C62.0290928,103.206778 56.5559466,98.187765 53.6276809,90.7278363 L59.0870442,90.7278294 L59.0870442,87.1624155 L52.4740013,87.1624155 C52.3224298,86.5784007 52.1853175,85.983848 52.0633099,85.3797086 L59.0870442,85.3797086 L59.0870442,81.8142948 L51.5334886,81.8142948 C51.4764281,81.226419 51.4332693,80.6319346 51.4045186,80.0315878 L59.0870442,80.0315878 L59.0870442,76.466174 L51.4045186,76.466174 C52.024785,63.5143169 59.3510987,53.290984 68.2976967,53.290984 C77.2442947,53.290984 84.5706084,63.5143169 85.1908748,76.466174 L78.1025848,76.466174 L78.1025848,80.0315878 L85.1908747,80.0315878 Z" id="Combined-Shape"></path>
                        </g>
                    </g>
                    <g id="Powered-by" transform="translate(0.000000, 43.000000)">
                        <g id="Group">
                            <g id="path-3-link" fill="#000000">
                                <path d="M0.034375,0.9871094 L18.8332031,0.9871094 C26.0272495,0.9871094 31.5366345,2.5984214 35.3615234,5.8210938 C39.1864124,9.0437661 41.0988281,13.4382534 41.0988281,19.0046875 C41.0988281,24.6362261 39.1701365,29.0958169 35.3126953,32.3835938 C31.4552542,35.6713706 25.7993862,37.3152344 18.3449219,37.3152344 L5.3078125,37.3152344 L5.3078125,69.2 L0.034375,69.2 L0.034375,0.9871094 Z M5.3078125,5.3816406 L5.3078125,32.9207031 L18.003125,32.9207031 C23.6997681,32.9207031 28.0291519,31.7162881 30.9914062,29.3074219 C33.9536606,26.8985557 35.4347656,23.496897 35.4347656,19.1023438 C35.4347656,14.903104 33.9862124,11.5665488 31.0890625,9.0925781 C28.1919126,6.6186074 24.0415635,5.3816406 18.6378906,5.3816406 L5.3078125,5.3816406 Z M65.3175781,23.3992188 C71.8280273,23.3992188 77.256033,25.6290142 81.6017578,30.0886719 C85.9474827,34.5483296 88.1203125,40.1146802 88.1203125,46.7878906 C88.1203125,53.4285488 85.9474827,58.9704856 81.6017578,63.4138672 C77.256033,67.8572488 71.8280273,70.0789063 65.3175781,70.0789063 C58.8071289,70.0789063 53.3628474,67.8572488 48.9845703,63.4138672 C44.6062932,58.9704856 42.4171875,53.4285488 42.4171875,46.7878906 C42.4171875,40.1146802 44.6062932,34.5483296 48.9845703,30.0886719 C53.3628474,25.6290142 58.8071289,23.3992188 65.3175781,23.3992188 Z M65.3175781,65.3914063 C70.3631763,65.3914063 74.5786289,63.6254734 77.9640625,60.0935547 C81.3494961,56.561636 83.0421875,52.126459 83.0421875,46.7878906 C83.0421875,41.4818745 81.3413582,37.0385596 77.9396484,33.4578125 C74.5379387,29.8770654 70.330624,28.0867188 65.3175781,28.0867188 C60.2394277,28.0867188 55.9995613,29.8607896 52.5978516,33.4089844 C49.1961418,36.9571792 47.4953125,41.41677 47.4953125,46.7878906 C47.4953125,52.126459 49.1961418,56.561636 52.5978516,60.0935547 C55.9995613,63.6254734 60.2394277,65.3914063 65.3175781,65.3914063 Z M161.704297,24.278125 L142.319531,70.0789063 L140.024609,70.0789063 L126.20625,33.6042969 L112.290234,70.0789063 L110.092969,70.0789063 L90.9035156,24.278125 L95.591016,24.278125 L110.923047,60.8992188 L124.985547,24.278125 L127.622266,24.278125 L141.294141,60.8992188 L156.919141,24.278125 L161.704297,24.278125 Z M204.673047,45.0789063 L169.272656,45.0789063 C169.175,45.8601602 169.126172,46.6414023 169.126172,47.4226563 C169.126172,52.4357021 170.916519,56.6837065 174.497266,60.1667969 C178.078013,63.6498872 182.309741,65.3914063 187.192578,65.3914063 C192.889221,65.3914063 198.455572,63.1616108 203.891797,58.7019531 L203.891797,64.121875 C198.748542,68.093249 192.986881,70.0789063 186.606641,70.0789063 C180.128744,70.0789063 174.773979,67.832835 170.542188,63.340625 C166.310396,58.848415 164.194531,53.1355815 164.194531,46.2019531 C164.194531,39.6263994 166.147637,34.1821179 170.053906,29.8689453 C173.960176,25.5557727 178.875491,23.3992188 184.8,23.3992188 C190.366434,23.3992188 195.070163,25.3441863 198.911328,29.2341797 C202.752493,33.1241731 204.673047,38.4056958 204.673047,45.0789063 Z M169.907422,41.2214844 L199.008984,41.2214844 C197.316268,32.4649302 192.579987,28.0867188 184.8,28.0867188 C181.121596,28.0867188 177.939662,29.2341682 175.254102,31.5291016 C172.568541,33.8240349 170.786333,37.0547969 169.907422,41.2214844 Z M245.395703,28.7214844 L242.6125,33.2136719 C238.868992,29.795686 235.857954,28.0867188 233.579297,28.0867188 C229.087087,28.0867188 224.285703,32.3835508 219.175,40.9773438 L219.175,69.2 L214.389844,69.2 L214.389844,24.278125 L219.175,24.278125 L219.175,36.0945313 L219.370313,36.0945313 C224.741433,27.6309473 229.982266,23.3992188 235.092969,23.3992188 C238.022671,23.3992188 241.456881,25.1732896 245.395703,28.7214844 Z M285.874219,45.0789063 L250.473828,45.0789063 C250.376171,45.8601602 250.327344,46.6414023 250.327344,47.4226563 C250.327344,52.4357021 252.11769,56.6837065 255.698438,60.1667969 C259.279185,63.6498872 263.510913,65.3914063 268.39375,65.3914063 C274.090393,65.3914063 279.656744,63.1616108 285.092969,58.7019531 L285.092969,64.121875 C279.949714,68.093249 274.188053,70.0789063 267.807813,70.0789063 C261.329916,70.0789063 255.975151,67.832835 251.743359,63.340625 C247.511567,58.848415 245.395703,53.1355815 245.395703,46.2019531 C245.395703,39.6263994 247.348809,34.1821179 251.255078,29.8689453 C255.161348,25.5557727 260.076663,23.3992188 266.001172,23.3992188 C271.567606,23.3992188 276.271335,25.3441863 280.1125,29.2341797 C283.953665,33.1241731 285.874219,38.4056958 285.874219,45.0789063 Z M251.108594,41.2214844 L280.210156,41.2214844 C278.517439,32.4649302 273.781159,28.0867188 266.001172,28.0867188 C262.322768,28.0867188 259.140834,29.2341682 256.455273,31.5291016 C253.769713,33.8240349 251.987504,37.0547969 251.108594,41.2214844 Z M334.214063,0.9871094 L334.214063,69.2 L329.380078,69.2 L329.380078,65.684375 C325.278495,68.6140771 320.851456,70.0789063 316.098828,70.0789063 C309.718588,70.0789063 304.33941,67.824697 299.961133,63.3162109 C295.582856,58.8077249 293.39375,53.2657881 293.39375,46.6902344 C293.39375,40.0170239 295.550304,34.4669492 299.863477,30.0398438 C304.176649,25.6127383 309.588379,23.3992188 316.098828,23.3992188 C320.232963,23.3992188 324.660002,24.6036338 329.380078,27.0125 L329.380078,0.9871094 L334.214063,0.9871094 Z M329.380078,61.2898438 L329.380078,32.2859375 C325.083182,29.4864443 320.721246,28.0867188 316.294141,28.0867188 C311.118333,28.0867188 306.854053,29.803824 303.501172,33.2380859 C300.148291,36.6723479 298.471875,41.0586973 298.471875,46.3972656 C298.471875,51.8334907 300.262222,56.3581851 303.842969,59.9714844 C307.423716,63.5847837 311.899583,65.3914063 317.270703,65.3914063 C321.437391,65.3914063 325.473809,64.0242324 329.380078,61.2898438 Z M374.253125,66.7097656 L374.253125,0.9871094 L379.038281,0.9871094 L379.038281,30.7234375 C383.823461,25.8406006 389.227053,23.3992188 395.249219,23.3992188 C401.108623,23.3992188 405.910007,25.4418416 409.653516,29.5271484 C413.397024,33.6124553 415.26875,38.8777021 415.26875,45.3230469 C415.26875,52.8100635 412.981989,58.8077249 408.408398,63.3162109 C403.834808,67.824697 397.755767,70.0789063 390.171094,70.0789063 C385.1906,70.0789063 379.884664,68.9558706 374.253125,66.7097656 Z M379.038281,36.0945313 L379.038281,63.2917969 C382.749237,64.6915435 386.427586,65.3914063 390.073438,65.3914063 C395.867737,65.3914063 400.660984,63.5278181 404.45332,59.8005859 C408.245657,56.0733538 410.141797,51.3452109 410.141797,45.6160156 C410.141797,40.3099995 408.676968,35.948064 405.747266,32.5300781 C402.817563,29.1120923 399.122939,27.403125 394.663281,27.403125 C389.324713,27.403125 384.116432,30.3002314 379.038281,36.0945313 Z M459.8,24.278125 L426.20625,92.198047 L421.323438,92.198047 L436.997266,60.5085938 L418.100781,24.278125 L423.130078,24.278125 L439.438672,55.7234375 L454.917188,24.278125 L459.8,24.278125 Z" id="path-3"></path>
                            </g>
                            <g id="path-3-link" fill="#FBC132">
                                <path d="M0.034375,0.9871094 L18.8332031,0.9871094 C26.0272495,0.9871094 31.5366345,2.5984214 35.3615234,5.8210938 C39.1864124,9.0437661 41.0988281,13.4382534 41.0988281,19.0046875 C41.0988281,24.6362261 39.1701365,29.0958169 35.3126953,32.3835938 C31.4552542,35.6713706 25.7993862,37.3152344 18.3449219,37.3152344 L5.3078125,37.3152344 L5.3078125,69.2 L0.034375,69.2 L0.034375,0.9871094 Z M5.3078125,5.3816406 L5.3078125,32.9207031 L18.003125,32.9207031 C23.6997681,32.9207031 28.0291519,31.7162881 30.9914062,29.3074219 C33.9536606,26.8985557 35.4347656,23.496897 35.4347656,19.1023438 C35.4347656,14.903104 33.9862124,11.5665488 31.0890625,9.0925781 C28.1919126,6.6186074 24.0415635,5.3816406 18.6378906,5.3816406 L5.3078125,5.3816406 Z M65.3175781,23.3992188 C71.8280273,23.3992188 77.256033,25.6290142 81.6017578,30.0886719 C85.9474827,34.5483296 88.1203125,40.1146802 88.1203125,46.7878906 C88.1203125,53.4285488 85.9474827,58.9704856 81.6017578,63.4138672 C77.256033,67.8572488 71.8280273,70.0789063 65.3175781,70.0789063 C58.8071289,70.0789063 53.3628474,67.8572488 48.9845703,63.4138672 C44.6062932,58.9704856 42.4171875,53.4285488 42.4171875,46.7878906 C42.4171875,40.1146802 44.6062932,34.5483296 48.9845703,30.0886719 C53.3628474,25.6290142 58.8071289,23.3992188 65.3175781,23.3992188 Z M65.3175781,65.3914063 C70.3631763,65.3914063 74.5786289,63.6254734 77.9640625,60.0935547 C81.3494961,56.561636 83.0421875,52.126459 83.0421875,46.7878906 C83.0421875,41.4818745 81.3413582,37.0385596 77.9396484,33.4578125 C74.5379387,29.8770654 70.330624,28.0867188 65.3175781,28.0867188 C60.2394277,28.0867188 55.9995613,29.8607896 52.5978516,33.4089844 C49.1961418,36.9571792 47.4953125,41.41677 47.4953125,46.7878906 C47.4953125,52.126459 49.1961418,56.561636 52.5978516,60.0935547 C55.9995613,63.6254734 60.2394277,65.3914063 65.3175781,65.3914063 Z M161.704297,24.278125 L142.319531,70.0789063 L140.024609,70.0789063 L126.20625,33.6042969 L112.290234,70.0789063 L110.092969,70.0789063 L90.9035156,24.278125 L95.591016,24.278125 L110.923047,60.8992188 L124.985547,24.278125 L127.622266,24.278125 L141.294141,60.8992188 L156.919141,24.278125 L161.704297,24.278125 Z M204.673047,45.0789063 L169.272656,45.0789063 C169.175,45.8601602 169.126172,46.6414023 169.126172,47.4226563 C169.126172,52.4357021 170.916519,56.6837065 174.497266,60.1667969 C178.078013,63.6498872 182.309741,65.3914063 187.192578,65.3914063 C192.889221,65.3914063 198.455572,63.1616108 203.891797,58.7019531 L203.891797,64.121875 C198.748542,68.093249 192.986881,70.0789063 186.606641,70.0789063 C180.128744,70.0789063 174.773979,67.832835 170.542188,63.340625 C166.310396,58.848415 164.194531,53.1355815 164.194531,46.2019531 C164.194531,39.6263994 166.147637,34.1821179 170.053906,29.8689453 C173.960176,25.5557727 178.875491,23.3992188 184.8,23.3992188 C190.366434,23.3992188 195.070163,25.3441863 198.911328,29.2341797 C202.752493,33.1241731 204.673047,38.4056958 204.673047,45.0789063 Z M169.907422,41.2214844 L199.008984,41.2214844 C197.316268,32.4649302 192.579987,28.0867188 184.8,28.0867188 C181.121596,28.0867188 177.939662,29.2341682 175.254102,31.5291016 C172.568541,33.8240349 170.786333,37.0547969 169.907422,41.2214844 Z M245.395703,28.7214844 L242.6125,33.2136719 C238.868992,29.795686 235.857954,28.0867188 233.579297,28.0867188 C229.087087,28.0867188 224.285703,32.3835508 219.175,40.9773438 L219.175,69.2 L214.389844,69.2 L214.389844,24.278125 L219.175,24.278125 L219.175,36.0945313 L219.370313,36.0945313 C224.741433,27.6309473 229.982266,23.3992188 235.092969,23.3992188 C238.022671,23.3992188 241.456881,25.1732896 245.395703,28.7214844 Z M285.874219,45.0789063 L250.473828,45.0789063 C250.376171,45.8601602 250.327344,46.6414023 250.327344,47.4226563 C250.327344,52.4357021 252.11769,56.6837065 255.698438,60.1667969 C259.279185,63.6498872 263.510913,65.3914063 268.39375,65.3914063 C274.090393,65.3914063 279.656744,63.1616108 285.092969,58.7019531 L285.092969,64.121875 C279.949714,68.093249 274.188053,70.0789063 267.807813,70.0789063 C261.329916,70.0789063 255.975151,67.832835 251.743359,63.340625 C247.511567,58.848415 245.395703,53.1355815 245.395703,46.2019531 C245.395703,39.6263994 247.348809,34.1821179 251.255078,29.8689453 C255.161348,25.5557727 260.076663,23.3992188 266.001172,23.3992188 C271.567606,23.3992188 276.271335,25.3441863 280.1125,29.2341797 C283.953665,33.1241731 285.874219,38.4056958 285.874219,45.0789063 Z M251.108594,41.2214844 L280.210156,41.2214844 C278.517439,32.4649302 273.781159,28.0867188 266.001172,28.0867188 C262.322768,28.0867188 259.140834,29.2341682 256.455273,31.5291016 C253.769713,33.8240349 251.987504,37.0547969 251.108594,41.2214844 Z M334.214063,0.9871094 L334.214063,69.2 L329.380078,69.2 L329.380078,65.684375 C325.278495,68.6140771 320.851456,70.0789063 316.098828,70.0789063 C309.718588,70.0789063 304.33941,67.824697 299.961133,63.3162109 C295.582856,58.8077249 293.39375,53.2657881 293.39375,46.6902344 C293.39375,40.0170239 295.550304,34.4669492 299.863477,30.0398438 C304.176649,25.6127383 309.588379,23.3992188 316.098828,23.3992188 C320.232963,23.3992188 324.660002,24.6036338 329.380078,27.0125 L329.380078,0.9871094 L334.214063,0.9871094 Z M329.380078,61.2898438 L329.380078,32.2859375 C325.083182,29.4864443 320.721246,28.0867188 316.294141,28.0867188 C311.118333,28.0867188 306.854053,29.803824 303.501172,33.2380859 C300.148291,36.6723479 298.471875,41.0586973 298.471875,46.3972656 C298.471875,51.8334907 300.262222,56.3581851 303.842969,59.9714844 C307.423716,63.5847837 311.899583,65.3914063 317.270703,65.3914063 C321.437391,65.3914063 325.473809,64.0242324 329.380078,61.2898438 Z M374.253125,66.7097656 L374.253125,0.9871094 L379.038281,0.9871094 L379.038281,30.7234375 C383.823461,25.8406006 389.227053,23.3992188 395.249219,23.3992188 C401.108623,23.3992188 405.910007,25.4418416 409.653516,29.5271484 C413.397024,33.6124553 415.26875,38.8777021 415.26875,45.3230469 C415.26875,52.8100635 412.981989,58.8077249 408.408398,63.3162109 C403.834808,67.824697 397.755767,70.0789063 390.171094,70.0789063 C385.1906,70.0789063 379.884664,68.9558706 374.253125,66.7097656 Z M379.038281,36.0945313 L379.038281,63.2917969 C382.749237,64.6915435 386.427586,65.3914063 390.073438,65.3914063 C395.867737,65.3914063 400.660984,63.5278181 404.45332,59.8005859 C408.245657,56.0733538 410.141797,51.3452109 410.141797,45.6160156 C410.141797,40.3099995 408.676968,35.948064 405.747266,32.5300781 C402.817563,29.1120923 399.122939,27.403125 394.663281,27.403125 C389.324713,27.403125 384.116432,30.3002314 379.038281,36.0945313 Z M459.8,24.278125 L426.20625,92.198047 L421.323438,92.198047 L436.997266,60.5085938 L418.100781,24.278125 L423.130078,24.278125 L439.438672,55.7234375 L454.917188,24.278125 L459.8,24.278125 Z" id="path-3"></path>
                            </g>
                        </g>
                    </g>
                </g>
            </g>
        </g>
    </g>
</svg>