<?xml version="1.0" encoding="UTF-8"?>
<svg width="252px" height="91px" viewBox="0 0 252 91" version="1.1" xmlns="http://www.w3.org/2000/svg" xmlns:xlink="http://www.w3.org/1999/xlink">
    <!-- Generator: Sketch 52.2 (67145) - http://www.bohemiancoding.com/sketch -->
    <title>Group 4</title>
    <desc>Created with Sketch.</desc>
    <g id="Page-1" stroke="none" stroke-width="1" fill="none" fill-rule="evenodd">
        <g id="Artboard" transform="translate(-12.000000, -24.000000)" fill="#FFFFFF">
            <g id="Group-4" transform="translate(12.000000, 24.000000)">
                <g id="Group-2">
                    <path d="M33,66 C14.774603,66 0,51.2253967 0,33 C0,14.7746033 14.774603,0 33,0 C51.225397,0 66,14.7746033 66,33 C65.972466,51.2139794 51.213979,65.9724656 33,66 Z M33,2 C15.879173,2 2,15.8791728 2,33 C2,50.1208272 15.879173,64 33,64 C50.120827,64 64,50.1208272 64,33 C64.000002,24.7748224 60.731194,16.8868187 54.91324,11.0726157 C49.095286,5.25841269 41.205176,1.99469343 32.98,2 L33,2 Z" id="Shape" fill-rule="nonzero"></path>
                    <path d="M41.0135135,50 C40.4537652,50 40,49.5462345 40,48.9864865 C40,48.4267385 40.4537652,47.972973 41.0135135,47.972973 C47.6162247,47.9673846 52.9673845,42.6162244 52.972973,36.0135135 C52.972973,35.4537655 53.4267382,35 53.9864865,35 C54.5462348,35 55,35.4537655 55,36.0135135 C54.9944105,43.7357202 48.7357203,49.9944103 41.0135135,50 Z" id="Shape"></path>
                    <circle id="Oval" cx="27.5" cy="22.5" r="4.5"></circle>
                    <circle id="Oval" cx="47.5" cy="17.5" r="4.5"></circle>
                    <path d="M39,27.8913006 C39,27.421513 39.1372735,27.0316893 39.3907016,27.0017029 C39.6441296,26.9717165 39.8975577,27.3415492 39.9397957,27.8113368 C40.4677708,33.3088507 43.3821934,37.5569296 46.444449,37.2970472 C46.697877,37.2970472 46.9513051,37.6368935 46.9935431,38.106681 C47.0357811,38.5764686 46.866829,38.9662923 46.6028415,38.9862833 C43.0231703,39.2961431 39.6124511,34.3183942 39,27.8913006 Z" id="Shape"></path>
                    <g id="Face-Right" transform="translate(1.000000, 73.000000)" font-family="Helvetica" font-size="14" font-weight="normal">
                        <text>
                            <tspan x="0" y="14">Face Right</tspan>
                        </text>
                    </g>
                </g>
                <g id="Group" transform="translate(186.000000, 0.000000)">
                    <path d="M0,33 C0,14.7746033 14.774603,0 33,0 C51.225397,0 66,14.7746033 66,33 C66,51.2253967 51.225397,66 33,66 C24.247856,66 15.854177,62.5232243 9.665476,56.3345238 C3.476776,50.1458233 0,41.7521442 0,33 Z M2,33 C2,50.1208272 15.879173,64 33,64 C50.120827,64 64,50.1208272 64,33 C64,15.8791728 50.120827,2 33,2 C15.879173,2 2,15.8791728 2,33 Z" id="Shape" fill-rule="nonzero"></path>
                    <path d="M12,36.0128292 C12,35.4534591 12.4534588,35 13.0128292,35 C13.5721995,35 14.0256583,35.4534591 14.0256583,36.0128292 C14.0368096,42.6143655 19.3856344,47.9631904 25.9871708,47.9743417 C26.5465412,47.9743417 27,48.4278008 27,48.9871708 C27,49.5465409 26.5465412,50 25.9871708,50 C18.2668957,49.9888435 12.0111563,43.7331044 12,36.0128292 Z" id="Shape"></path>
                    <circle id="Oval" cx="39.5" cy="21.5" r="4.5"></circle>
                    <circle id="Oval" cx="19.5" cy="16.5" r="4.5"></circle>
                    <path d="M20.3894526,38.9870106 C20.135983,38.9870106 19.956442,38.567175 20.0092482,38.097359 C20.0620544,37.6275429 20.2944015,37.2676838 20.5584324,37.2976721 C23.6211906,37.5575703 26.5255303,33.2992377 27.0535921,27.8013904 C27.0535921,27.3415705 27.3387454,26.9717153 27.6027763,27.0017035 C27.8668072,27.0316918 28.035787,27.4215392 27.993542,27.8813591 C27.3809904,34.3588228 23.9697114,39.2868932 20.3894526,38.9870106 Z" id="Shape"></path>
                    <g id="Face-Left" transform="translate(3.000000, 73.000000)" font-family="Helvetica" font-size="14" font-weight="normal">
                        <text>
                            <tspan x="0.31" y="14.03">Face Left</tspan>
                        </text>
                    </g>
                </g>
                <g id="Group-3" transform="translate(93.000000, 0.000000)">
                    <path d="M33,66 C14.774603,66 0,51.2253967 0,33 C0,14.7746033 14.774603,0 33,0 C51.225397,0 66,14.7746033 66,33 C65.972466,51.2139794 51.213979,65.9724656 33,66 Z M33,2 C15.879173,2 2,15.8791728 2,33 C2,50.1208272 15.879173,64 33,64 C50.120827,64 64,50.1208272 64,33 C64.000002,24.7748224 60.731194,16.8868187 54.91324,11.0726157 C49.095286,5.25841269 41.205176,1.99469343 32.98,2 L33,2 Z" id="Shape" fill-rule="nonzero"></path>
                    <circle id="Oval" cx="23.5" cy="25.5" r="4.5"></circle>
                    <circle id="Oval" cx="44.5" cy="25.5" r="4.5"></circle>
                    <path d="M34.5050435,53 C41.122087,53 46.7203478,47.053184 49,39 L20,39 C22.3401739,47.053184 27.898087,53 34.5050435,53 Z" id="Shape"></path>
                    <g id="Smile" transform="translate(16.000000, 73.000000)" font-family="Helvetica" font-size="14" font-weight="normal">
                        <text>
                            <tspan x="0" y="14">Smile</tspan>
                        </text>
                    </g>
                </g>
            </g>
        </g>
    </g>
</svg>