<?xml version="1.0" encoding="UTF-8" standalone="no"?>
<svg
   xmlns:dc="http://purl.org/dc/elements/1.1/"
   xmlns:cc="http://creativecommons.org/ns#"
   xmlns:rdf="http://www.w3.org/1999/02/22-rdf-syntax-ns#"
   xmlns:svg="http://www.w3.org/2000/svg"
   xmlns="http://www.w3.org/2000/svg"
   xmlns:sodipodi="http://sodipodi.sourceforge.net/DTD/sodipodi-0.dtd"
   xmlns:inkscape="http://www.inkscape.org/namespaces/inkscape"
   width="252px"
   height="91px"
   viewBox="0 0 252 91"
   version="1.1"
   id="svg156"
   sodipodi:docname="livenessTutorial.svg"
   inkscape:version="1.0beta2 (2b71d25, 2019-12-03)">
  <metadata
     id="metadata162">
    <rdf:RDF>
      <cc:Work
         rdf:about="">
        <dc:format>image/svg+xml</dc:format>
        <dc:type
           rdf:resource="http://purl.org/dc/dcmitype/StillImage" />
        <dc:title>Group 4</dc:title>
      </cc:Work>
    </rdf:RDF>
  </metadata>
  <defs
     id="defs160" />
  <sodipodi:namedview
     pagecolor="#000000"
     bordercolor="#666666"
     inkscape:document-rotation="0"
     borderopacity="1"
     objecttolerance="10"
     gridtolerance="10"
     guidetolerance="10"
     inkscape:pageopacity="1"
     inkscape:pageshadow="2"
     inkscape:window-width="1544"
     inkscape:window-height="666"
     id="namedview158"
     showgrid="false"
     inkscape:zoom="4.6528723"
     inkscape:cx="119.10445"
     inkscape:cy="39.000077"
     inkscape:window-x="229"
     inkscape:window-y="330"
     inkscape:window-maximized="0"
     inkscape:current-layer="Group-3" />
  <!-- Generator: Sketch 52.2 (67145) - http://www.bohemiancoding.com/sketch -->
  <title
     id="title105">Group 4</title>
  <desc
     id="desc107">Created with Sketch.</desc>
  <g
     id="Page-1"
     stroke="none"
     stroke-width="1"
     fill="none"
     fill-rule="evenodd">
    <g
       id="Artboard"
       transform="translate(-12.000000, -24.000000)"
       fill="#FFFFFF">
      <g
         id="Group-4"
         transform="translate(12.000000, 24.000000)">
        <g
           id="Group-2">
          <path
             d="M33,66 C14.774603,66 0,51.2253967 0,33 C0,14.7746033 14.774603,0 33,0 C51.225397,0 66,14.7746033 66,33 C65.972466,51.2139794 51.213979,65.9724656 33,66 Z M33,2 C15.879173,2 2,15.8791728 2,33 C2,50.1208272 15.879173,64 33,64 C50.120827,64 64,50.1208272 64,33 C64.000002,24.7748224 60.731194,16.8868187 54.91324,11.0726157 C49.095286,5.25841269 41.205176,1.99469343 32.98,2 L33,2 Z"
             id="Shape"
             fill-rule="nonzero" />
          <path
             d="M41.0135135,50 C40.4537652,50 40,49.5462345 40,48.9864865 C40,48.4267385 40.4537652,47.972973 41.0135135,47.972973 C47.6162247,47.9673846 52.9673845,42.6162244 52.972973,36.0135135 C52.972973,35.4537655 53.4267382,35 53.9864865,35 C54.5462348,35 55,35.4537655 55,36.0135135 C54.9944105,43.7357202 48.7357203,49.9944103 41.0135135,50 Z"
             id="path110" />
          <circle
             id="Oval"
             cx="27.5"
             cy="22.5"
             r="4.5" />
          <circle
             id="circle113"
             cx="47.5"
             cy="17.5"
             r="4.5" />
          <path
             d="M39,27.8913006 C39,27.421513 39.1372735,27.0316893 39.3907016,27.0017029 C39.6441296,26.9717165 39.8975577,27.3415492 39.9397957,27.8113368 C40.4677708,33.3088507 43.3821934,37.5569296 46.444449,37.2970472 C46.697877,37.2970472 46.9513051,37.6368935 46.9935431,38.106681 C47.0357811,38.5764686 46.866829,38.9662923 46.6028415,38.9862833 C43.0231703,39.2961431 39.6124511,34.3183942 39,27.8913006 Z"
             id="path115" />
          <g
             id="Face-Right"
             transform="translate(1.000000, 73.000000)"
             font-family="Helvetica"
             font-size="11"
             font-weight="normal">
            <!-- <text
               id="text119"><tspan
                 x="0"
                 y="14"
                 id="tspan117">Girar la cabeza a la derecha</tspan></text> -->
          </g>
        </g>
        <g
           id="Group"
           transform="translate(186.000000, 0.000000)">
          <path
             d="M0,33 C0,14.7746033 14.774603,0 33,0 C51.225397,0 66,14.7746033 66,33 C66,51.2253967 51.225397,66 33,66 C24.247856,66 15.854177,62.5232243 9.665476,56.3345238 C3.476776,50.1458233 0,41.7521442 0,33 Z M2,33 C2,50.1208272 15.879173,64 33,64 C50.120827,64 64,50.1208272 64,33 C64,15.8791728 50.120827,2 33,2 C15.879173,2 2,15.8791728 2,33 Z"
             id="path123"
             fill-rule="nonzero" />
          <path
             d="M12,36.0128292 C12,35.4534591 12.4534588,35 13.0128292,35 C13.5721995,35 14.0256583,35.4534591 14.0256583,36.0128292 C14.0368096,42.6143655 19.3856344,47.9631904 25.9871708,47.9743417 C26.5465412,47.9743417 27,48.4278008 27,48.9871708 C27,49.5465409 26.5465412,50 25.9871708,50 C18.2668957,49.9888435 12.0111563,43.7331044 12,36.0128292 Z"
             id="path125" />
          <circle
             id="circle127"
             cx="39.5"
             cy="21.5"
             r="4.5" />
          <circle
             id="circle129"
             cx="19.5"
             cy="16.5"
             r="4.5" />
          <path
             d="M20.3894526,38.9870106 C20.135983,38.9870106 19.956442,38.567175 20.0092482,38.097359 C20.0620544,37.6275429 20.2944015,37.2676838 20.5584324,37.2976721 C23.6211906,37.5575703 26.5255303,33.2992377 27.0535921,27.8013904 C27.0535921,27.3415705 27.3387454,26.9717153 27.6027763,27.0017035 C27.8668072,27.0316918 28.035787,27.4215392 27.993542,27.8813591 C27.3809904,34.3588228 23.9697114,39.2868932 20.3894526,38.9870106 Z"
             id="path131" />
          <g
             id="Face-Left"
             transform="translate(3.000000, 73.000000)"
             font-family="Helvetica"
             font-size="11"
             font-weight="normal">
            <!-- <text
               id="text135"><tspan
                 x="0.31"
                 y="14.03"
                 id="tspan133">Girar la cabeza a la izquierda</tspan></text> -->
          </g>
          <path
             id="path131-4"
             d="m -61.383451,52.026605 c -0.250147,0.04091 -0.495091,-0.344448 -0.518798,-0.816628 -0.02372,-0.472178 0.147509,-0.864819 0.412918,-0.877836 3.064554,-0.237813 5.24356,-4.909056 4.877391,-10.420054 -0.07421,-0.453792 0.147519,-0.864821 0.412928,-0.877838 0.265409,-0.01302 0.495091,0.344447 0.527606,0.805058 0.440889,6.491408 -2.130322,11.905425 -5.712045,12.187298 z"
             inkscape:connector-curvature="0"
             inkscape:transform-center-x="-1.5078973"
             inkscape:transform-center-y="-0.24642802" />
        </g>
        <g
           id="Group-3"
           transform="translate(93.000000, 0.000000)">
          <path
             d="M33,66 C14.774603,66 0,51.2253967 0,33 C0,14.7746033 14.774603,0 33,0 C51.225397,0 66,14.7746033 66,33 C65.972466,51.2139794 51.213979,65.9724656 33,66 Z M33,2 C15.879173,2 2,15.8791728 2,33 C2,50.1208272 15.879173,64 33,64 C50.120827,64 64,50.1208272 64,33 C64.000002,24.7748224 60.731194,16.8868187 54.91324,11.0726157 C49.095286,5.25841269 41.205176,1.99469343 32.98,2 L33,2 Z"
             id="path139"
             fill-rule="nonzero" />
          <circle
             id="circle141"
             cx="23.5"
             cy="33.666996"
             r="4.5" />
          <circle
             id="circle143"
             cx="44.5"
             cy="33.666996"
             r="4.5" />
          <g
             id="Smile"
             transform="translate(2,73)"
             font-family="Helvetica"
             font-size="11"
             font-weight="normal">
            <!-- <text
               id="text149"><tspan
                 x="0"
                 y="14"
                 id="tspan147">Mover la cabeza hacia abajo</tspan></text> -->
          </g>
        </g>
        <path
           id="path110-3"
           d="m 118.44602,58.541456 c -0.51777,-0.212693 -0.76507,-0.804847 -0.55229,-1.322642 0.2127,-0.517767 0.80485,-0.765082 1.32262,-0.552387 1.61533,0.661403 3.29137,0.944827 4.9299,0.890326 4.55957,-0.151651 8.82744,-2.917063 10.67689,-7.408404 0.21269,-0.517757 0.80484,-0.765072 1.3226,-0.552379 0.51777,0.212693 0.76508,0.80485 0.55229,1.322649 -0.97209,2.361104 -2.51557,4.314498 -4.40475,5.7657 -1.13787,0.874057 -2.40109,1.565961 -3.74031,2.055091 -3.16184,1.154819 -6.74737,1.179297 -10.10696,-0.197951 z"
           inkscape:connector-curvature="0"
           sodipodi:nodetypes="cscscscssc" />
      </g>
    </g>
  </g>
  <g
     inkscape:groupmode="layer"
     id="layer2"
     inkscape:label="Layer 1" />
</svg>
