<?xml version="1.0" encoding="UTF-8"?>
<svg width="341px" height="93px" viewBox="0 0 341 93" version="1.1" xmlns="http://www.w3.org/2000/svg" xmlns:xlink="http://www.w3.org/1999/xlink">
    <!-- Generator: Sketch 51.3 (57544) - http://www.bohemiancoding.com/sketch -->
    <title>livenessTutorial</title>
    <desc>Created with Sketch.</desc>
    <defs></defs>
    <g id="Page-1" stroke="none" stroke-width="1" fill="none" fill-rule="evenodd">
        <g id="Artboard" transform="translate(-308.000000, -408.000000)" fill="#FFFFFF">
            <g id="livenessTutorial" transform="translate(307.000000, 408.000000)">
                <path d="M122.48,67.41 C104.254603,67.41 89.48,52.6353967 89.48,34.41 C89.48,16.1846033 104.254603,1.41 122.48,1.41 C140.705397,1.41 155.48,16.1846033 155.48,34.41 C155.452466,52.6239794 140.693979,67.3824656 122.48,67.41 Z M122.48,3.41 C105.359173,3.41 91.48,17.2891728 91.48,34.41 C91.48,51.5308272 105.359173,65.41 122.48,65.41 C139.600827,65.41 153.48,51.5308272 153.48,34.41 C153.480002,26.1848224 150.211194,18.2968187 144.39324,12.4826157 C138.575286,6.66841269 130.685176,3.40469343 122.46,3.41 L122.48,3.41 Z" id="Shape" fill-rule="nonzero"></path>
                <path d="M129.88,51.32 C129.327715,51.32 128.88,50.8722847 128.88,50.32 C128.88,49.7677153 129.327715,49.32 129.88,49.32 C136.394675,49.3144861 141.674486,44.0346747 141.68,37.52 C141.68,36.9677153 142.127715,36.52 142.68,36.52 C143.232285,36.52 143.68,36.9677153 143.68,37.52 C143.674485,45.1392439 137.499244,51.3144848 129.88,51.32 Z" id="Shape" fill-rule="nonzero"></path>
                <circle id="Oval" fill-rule="nonzero" cx="116.57" cy="23.36" r="4.25"></circle>
                <circle id="Oval" fill-rule="nonzero" cx="136.27" cy="18.67" r="4.25"></circle>
                <path d="M128.24,29.29 C128.24,28.82 128.37,28.43 128.61,28.4 C128.85,28.37 129.09,28.74 129.13,29.21 C129.63,34.71 132.39,38.96 135.29,38.7 C135.53,38.7 135.77,39.04 135.81,39.51 C135.85,39.98 135.69,40.37 135.44,40.39 C132.05,40.7 128.82,35.72 128.24,29.29 Z" id="Shape" fill-rule="nonzero"></path>
                <path d="M182.14,33.64 C182.14,15.4146033 196.914603,0.64 215.14,0.64 C233.365397,0.64 248.14,15.4146033 248.14,33.64 C248.14,51.8653967 233.365397,66.64 215.14,66.64 C206.387856,66.64 197.994177,63.1632243 191.805476,56.9745238 C185.616776,50.7858233 182.14,42.3921442 182.14,33.64 Z M184.14,33.64 C184.14,50.7608272 198.019173,64.64 215.14,64.64 C232.260827,64.64 246.14,50.7608272 246.14,33.64 C246.14,16.5191728 232.260827,2.64 215.14,2.64 C198.019173,2.64 184.14,16.5191728 184.14,33.64 Z" id="Shape" fill-rule="nonzero"></path>
                <path d="M193.93,36.75 C193.93,36.1977153 194.377715,35.75 194.93,35.75 C195.482285,35.75 195.93,36.1977153 195.93,36.75 C195.94101,43.2679169 201.222083,48.54899 207.74,48.56 C208.292285,48.56 208.74,49.0077153 208.74,49.56 C208.74,50.1122847 208.292285,50.56 207.74,50.56 C200.117515,50.5489848 193.941015,44.3724851 193.93,36.75 Z" id="Shape" fill-rule="nonzero"></path>
                <circle id="Oval" fill-rule="nonzero" cx="221.04" cy="22.59" r="4.25"></circle>
                <circle id="Oval" fill-rule="nonzero" cx="201.34" cy="17.9" r="4.25"></circle>
                <path d="M202.17,39.63 C201.93,39.63 201.76,39.21 201.81,38.74 C201.86,38.27 202.08,37.91 202.33,37.94 C205.23,38.2 207.98,33.94 208.48,28.44 C208.48,27.98 208.75,27.61 209,27.64 C209.25,27.67 209.41,28.06 209.37,28.52 C208.79,35 205.56,39.93 202.17,39.63 Z" id="Shape" fill-rule="nonzero"></path>
                <path d="M35.41,66.54 C17.1846033,66.54 2.41,51.7653967 2.41,33.54 C2.41,15.3146033 17.1846033,0.54 35.41,0.54 C53.6353967,0.54 68.41,15.3146033 68.41,33.54 C68.3824656,51.7539794 53.6239794,66.5124656 35.41,66.54 Z M35.41,2.54 C18.2891728,2.54 4.41,16.4191728 4.41,33.54 C4.41,50.6608272 18.2891728,64.54 35.41,64.54 C52.5308272,64.54 66.41,50.6608272 66.41,33.54 C66.4100039,25.3130883 63.139824,17.4235672 57.3197062,11.6090764 C51.4995884,5.79458548 43.6069078,2.53203847 35.38,2.54 L35.41,2.54 Z" id="Shape" fill-rule="nonzero"></path>
                <path d="M26.89,55.8 C26.4470562,55.4991657 26.3196706,54.9028164 26.6010426,54.4472616 C26.8824147,53.9917068 27.4726887,53.8386179 27.94,54.1 C33.4723252,57.5473886 40.7512482,55.8652281 44.21,50.34 C44.5277903,49.9813973 45.0552864,49.8986074 45.4676552,50.1426126 C45.880024,50.3866178 46.0613617,50.888836 45.9,51.34 C41.8811152,57.8196514 33.371342,59.8161579 26.89,55.8 Z" id="Shape" fill-rule="nonzero"></path>
                <circle id="Oval" fill-rule="nonzero" cx="26.24" cy="31.8" r="4.25"></circle>
                <circle id="Oval" fill-rule="nonzero" cx="46.49" cy="31.79" r="4.25"></circle>
                <path d="M31,49.87 C30.7,49.87 30.46,49.42 30.47,48.87 C30.48,48.32 30.72,47.87 31.03,47.87 C34.61,47.87 37.58,42.68 37.67,36.21 C37.67,35.66 37.93,35.21 38.23,35.21 C38.53,35.21 38.77,35.66 38.77,36.21 C38.7,43.8 35.22,49.92 31,49.87 Z" id="Shape" fill-rule="nonzero"></path>
                <path d="M308.23,66.64 C290.004603,66.64 275.23,51.8653967 275.23,33.64 C275.23,15.4146033 290.004603,0.64 308.23,0.64 C326.455397,0.64 341.23,15.4146033 341.23,33.64 C341.202466,51.8539794 326.443979,66.6124656 308.23,66.64 Z M308.23,2.64 C291.109173,2.64 277.23,16.5191728 277.23,33.64 C277.23,50.7608272 291.109173,64.64 308.23,64.64 C325.350827,64.64 339.23,50.7608272 339.23,33.64 C339.230002,25.4148224 335.961194,17.5268187 330.14324,11.7126157 C324.325286,5.89841269 316.435176,2.63469343 308.21,2.64 L308.23,2.64 Z" id="Shape" fill-rule="nonzero"></path>
                <circle id="Oval" fill-rule="nonzero" cx="298.93" cy="26.64" r="4.25"></circle>
                <circle id="Oval" fill-rule="nonzero" cx="319.18" cy="26.63" r="4.25"></circle>
                <path d="M309.06,54.6 C315.62,54.6 321.17,48.53 323.43,40.31 L294.68,40.31 C297,48.53 302.51,54.6 309.06,54.6 Z" id="Shape" fill-rule="nonzero"></path>
                <text id="Face-Down" font-family="Helvetica" font-size="14" font-weight="normal">
                    <tspan x="0" y="88.03">Face Down</tspan>
                </text>
                <text id="Face-Right" font-family="Helvetica" font-size="14" font-weight="normal">
                    <tspan x="85.07" y="88.03">Face Right</tspan>
                </text>
                <text id="Face-Left" font-family="Helvetica" font-size="14" font-weight="normal">
                    <tspan x="186.31" y="88.03">Face Left</tspan>
                </text>
                <text id="Smile" font-family="Helvetica" font-size="14" font-weight="normal">
                    <tspan x="291" y="88">Smile</tspan>
                </text>
            </g>
        </g>
    </g>
</svg>