<svg xmlns="http://www.w3.org/2000/svg" viewBox="0 0 430.24 111.57"><defs><style>.cls-1,.cls-2,.cls-3,.cls-4{fill:#fff;}.cls-2,.cls-3,.cls-4{font-size:14px;font-family:Helvetica, Helvetica;}.cls-2{letter-spacing:0.02em;}.cls-3,.cls-7{letter-spacing:0.02em;}.cls-4{letter-spacing:-0.05em;}.cls-5{letter-spacing:0.02em;}.cls-6{font-size:7px;font-family:MyriadPro-Regular, Myriad Pro;letter-spacing:0.01em;}.cls-8{letter-spacing:0.01em;}</style></defs><title>Asset 5</title><g id="Layer_2" data-name="Layer 2"><g id="Capa_1" data-name="Capa 1"><path class="cls-1" d="M122.48,67.41a33,33,0,1,1,33-33A33.05,33.05,0,0,1,122.48,67.41Zm0-64a31,31,0,1,0,31,31A31,31,0,0,0,122.46,3.41Z"/><path class="cls-1" d="M129.88,51.32a1,1,0,0,1-1-1,1,1,0,0,1,1-1,11.81,11.81,0,0,0,11.8-11.8,1,1,0,0,1,2,0A13.81,13.81,0,0,1,129.88,51.32Z"/><circle class="cls-1" cx="116.57" cy="23.36" r="4.25"/><circle class="cls-1" cx="136.27" cy="18.67" r="4.25"/><path class="cls-1" d="M128.24,29.29c0-.47.13-.86.37-.89s.48.34.52.81c.5,5.5,3.26,9.75,6.16,9.49.24,0,.48.34.52.81s-.12.86-.37.88C132.05,40.7,128.82,35.72,128.24,29.29Z"/><path class="cls-1" d="M182.14,33.64a33,33,0,1,1,33,33A33,33,0,0,1,182.14,33.64Zm2,0a31,31,0,1,0,31-31A31,31,0,0,0,184.14,33.64Z"/><path class="cls-1" d="M193.93,36.75a1,1,0,0,1,2,0,11.83,11.83,0,0,0,11.81,11.81,1,1,0,0,1,0,2A13.83,13.83,0,0,1,193.93,36.75Z"/><circle class="cls-1" cx="221.04" cy="22.59" r="4.25"/><circle class="cls-1" cx="201.34" cy="17.9" r="4.25"/><path class="cls-1" d="M202.17,39.63c-.24,0-.41-.42-.36-.89s.27-.83.52-.8c2.9.26,5.65-4,6.15-9.5,0-.46.27-.83.52-.8s.41.42.37.88C208.79,35,205.56,39.93,202.17,39.63Z"/><path class="cls-1" d="M35.41,66.54a33,33,0,1,1,33-33A33.05,33.05,0,0,1,35.41,66.54Zm0-64a31,31,0,1,0,31,31A31,31,0,0,0,35.38,2.54Z"/><path class="cls-1" d="M26.89,55.8a1,1,0,0,1,1.05-1.7,11.82,11.82,0,0,0,16.27-3.76,1,1,0,0,1,1.69,1A13.81,13.81,0,0,1,26.89,55.8Z"/><circle class="cls-1" cx="26.24" cy="31.8" r="4.25"/><circle class="cls-1" cx="46.49" cy="31.79" r="4.25"/><path class="cls-1" d="M31,49.87c-.3,0-.54-.45-.53-1s.25-1,.56-1c3.58,0,6.55-5.19,6.64-11.66,0-.55.26-1,.56-1s.54.45.54,1C38.7,43.8,35.22,49.92,31,49.87Z"/><path class="cls-1" d="M308.23,66.64a33,33,0,1,1,33-33A33.05,33.05,0,0,1,308.23,66.64Zm0-64a31,31,0,1,0,31,31A31,31,0,0,0,308.21,2.64Z"/><circle class="cls-1" cx="298.93" cy="26.64" r="4.25"/><circle class="cls-1" cx="319.18" cy="26.63" r="4.25"/><path class="cls-1" d="M309.06,54.6c6.56,0,12.11-6.07,14.37-14.29H294.68C297,48.53,302.51,54.6,309.06,54.6Z"/><path class="cls-1" d="M397.25,66a33,33,0,1,1,33-33A33,33,0,0,1,397.25,66Zm0-64a31,31,0,1,0,31,31A31,31,0,0,0,397.23,2Z"/><circle class="cls-1" cx="387.95" cy="26" r="4.25"/><circle class="cls-1" cx="408.2" cy="26" r="4.25"/><ellipse class="cls-1" cx="397.25" cy="45.06" rx="8.49" ry="12.06"/><text class="cls-2" transform="translate(0 88.03)">Face Down <tspan x="15.82" y="16.8">&amp; Back</tspan></text><text class="cls-2" transform="translate(85.07 88.03)">Face Right <tspan x="14.42" y="16.8">&amp; Back</tspan></text><text class="cls-2" transform="translate(186.31 88.03)">Face Left<tspan x="7.49" y="16.8">&amp; Back</tspan></text><text class="cls-3" transform="translate(290.91 97.03)">Smile</text><text class="cls-4" transform="translate(379.77 97.03)">Y<tspan class="cls-5" x="8.63" y="0">awn</tspan></text><text class="cls-6" transform="translate(14.64 75.93)">L<tspan class="cls-7" x="3.37" y="0">o</tspan><tspan class="cls-8" x="7.37" y="0">r</tspan><tspan class="cls-7" x="9.75" y="0">em ipsum</tspan></text></g></g></svg>